<svg width="538" height="205" viewBox="0 0 538 205" fill="none" xmlns="http://www.w3.org/2000/svg">
<path d="M12.4 3.8C12.4 3.8 12.144 4.216 11.632 5.048C11.12 5.816 10.512 6.808 9.808 8.024C9.104 9.176 8.496 10.328 7.984 11.48C8.368 11.48 8.976 11.832 9.808 12.536C10.704 13.24 11.504 14.04 12.208 14.936C12.976 15.768 13.36 16.472 13.36 17.048C13.36 18.84 12.752 20.28 11.536 21.368C10.384 22.456 8.912 23 7.12 23C5.392 23 3.856 22.36 2.512 21.08C1.232 19.8 0.592 18.264 0.592 16.472C0.592 14.616 1.008 12.792 1.84 11C2.672 9.144 3.632 7.448 4.72 5.912C5.872 4.376 6.864 3.16 7.696 2.264C8.592 1.368 9.04 0.919998 9.04 0.919998L12.4 3.8ZM30.16 3.8C30.16 3.8 29.904 4.216 29.392 5.048C28.88 5.816 28.272 6.808 27.568 8.024C26.864 9.176 26.256 10.328 25.744 11.48C26.128 11.48 26.736 11.832 27.568 12.536C28.464 13.24 29.264 14.04 29.968 14.936C30.736 15.768 31.12 16.472 31.12 17.048C31.12 18.84 30.512 20.28 29.296 21.368C28.144 22.456 26.672 23 24.88 23C23.152 23 21.616 22.36 20.272 21.08C18.992 19.8 18.352 18.264 18.352 16.472C18.352 14.616 18.768 12.792 19.6 11C20.432 9.144 21.392 7.448 22.48 5.912C23.632 4.376 24.624 3.16 25.456 2.264C26.352 1.368 26.8 0.919998 26.8 0.919998L30.16 3.8ZM508.193 202.12C508.193 202.12 508.449 201.736 508.961 200.968C509.473 200.136 510.081 199.144 510.785 197.992C511.489 196.776 512.097 195.592 512.609 194.44C512.225 194.376 511.585 194.024 510.689 193.384C509.857 192.68 509.057 191.912 508.289 191.08C507.585 190.184 507.233 189.448 507.233 188.872C507.233 187.08 507.809 185.64 508.961 184.552C510.177 183.464 511.681 182.92 513.473 182.92C515.201 182.92 516.705 183.56 517.985 184.84C519.329 186.12 520.001 187.656 520.001 189.448C520.001 191.304 519.585 193.16 518.753 195.016C517.921 196.808 516.929 198.472 515.777 200.008C514.689 201.544 513.697 202.76 512.801 203.656C511.969 204.552 511.553 205 511.553 205L508.193 202.12ZM525.953 202.12C525.953 202.12 526.209 201.736 526.721 200.968C527.233 200.136 527.841 199.144 528.545 197.992C529.249 196.776 529.857 195.592 530.369 194.44C529.985 194.376 529.345 194.024 528.449 193.384C527.617 192.68 526.817 191.912 526.049 191.08C525.345 190.184 524.993 189.448 524.993 188.872C524.993 187.08 525.569 185.64 526.721 184.552C527.937 183.464 529.441 182.92 531.233 182.92C532.961 182.92 534.465 183.56 535.745 184.84C537.089 186.12 537.761 187.656 537.761 189.448C537.761 191.304 537.345 193.16 536.513 195.016C535.681 196.808 534.689 198.472 533.537 200.008C532.449 201.544 531.457 202.76 530.561 203.656C529.729 204.552 529.313 205 529.313 205L525.953 202.12Z" fill="#619933"/>
</svg>
